<svg xmlns="http://www.w3.org/2000/svg" viewBox="0 0 464.01 269"><defs><style>.cls-1{fill:#8e8d8a;}</style></defs><title>Asset 1</title><g id="Layer_2" data-name="Layer 2"><g id="Artwork"><path class="cls-1" d="M109.26,118.25c.2,2.71.3,5.42.38,8.13s.1,5.41.12,8.12,0,5.42-.12,8.12l-.14,4.07c-.08,1.35-.13,2.71-.24,4.06-.12-1.35-.17-2.71-.25-4.06l-.14-4.07c-.09-2.7-.1-5.41-.11-8.12s0-5.42.11-8.12S109.05,121,109.26,118.25Z"/><path class="cls-1" d="M117.38,102c.21,5.42.3,10.83.38,16.25s.08,10.83.12,16.25,0,10.83-.11,16.25l-.14,8.13c-.09,2.7-.14,5.41-.25,8.12-.11-2.71-.16-5.42-.24-8.12l-.14-8.13c-.08-5.42-.08-10.83-.12-16.25s0-10.83.12-16.25S117.17,107.42,117.38,102Z"/><polygon class="cls-1" points="125.51 53.25 125.75 73.56 125.89 93.88 126 134.5 125.89 175.13 125.75 195.44 125.51 215.75 125.26 195.44 125.12 175.13 125.01 134.5 125.12 93.88 125.26 73.56 125.51 53.25"/><path class="cls-1" d="M133.63,69.5c.21,10.83.3,21.67.38,32.5l.12,32.5L134,167l-.14,16.25-.25,16.25-.24-16.25L133.25,167l-.12-32.5.12-32.5C133.33,91.17,133.42,80.33,133.63,69.5Z"/><path class="cls-1" d="M141.76,118.25c.2,2.71.3,5.42.38,8.13s.1,5.41.12,8.12,0,5.42-.12,8.12l-.14,4.07c-.08,1.35-.13,2.71-.24,4.06-.12-1.35-.17-2.71-.25-4.06l-.14-4.07c-.09-2.7-.1-5.41-.11-8.12s0-5.42.11-8.12S141.55,121,141.76,118.25Z"/><path class="cls-1" d="M149.88,85.75c.21,8.13.3,16.25.38,24.37l.12,24.38-.11,24.38-.14,12.18-.25,12.19-.24-12.19-.14-12.18-.12-24.38.12-24.38C149.58,102,149.67,93.88,149.88,85.75Z"/><polygon class="cls-1" points="158.01 37 158.25 61.38 158.39 85.75 158.5 134.5 158.39 183.25 158.25 207.63 158.01 232 157.76 207.63 157.62 183.25 157.51 134.5 157.62 85.75 157.76 61.38 158.01 37"/><path class="cls-1" d="M166.13,118.25c.21,2.71.3,5.42.38,8.13s.11,5.41.12,8.12,0,5.42-.11,8.12l-.14,4.07c-.09,1.35-.14,2.71-.25,4.06-.11-1.35-.16-2.71-.24-4.06l-.14-4.07c-.09-2.7-.11-5.41-.12-8.12s0-5.42.12-8.12S165.92,121,166.13,118.25Z"/><path class="cls-1" d="M174.26,102c.2,5.42.3,10.83.38,16.25s.07,10.83.12,16.25,0,10.83-.12,16.25l-.14,8.13c-.08,2.7-.13,5.41-.24,8.12-.12-2.71-.17-5.42-.25-8.12l-.14-8.13c-.08-5.42-.07-10.83-.11-16.25s0-10.83.11-16.25S174.05,107.42,174.26,102Z"/><path class="cls-1" d="M182.38,69.5c.21,10.83.3,21.67.38,32.5l.12,32.5-.11,32.5-.14,16.25-.25,16.25-.24-16.25L182,167l-.12-32.5L182,102C182.08,91.17,182.17,80.33,182.38,69.5Z"/><path class="cls-1" d="M190.51,102c.2,5.42.3,10.83.38,16.25s.07,10.83.12,16.25,0,10.83-.12,16.25l-.14,8.13c-.08,2.7-.13,5.41-.24,8.12-.12-2.71-.17-5.42-.25-8.12l-.14-8.13c-.08-5.42-.07-10.83-.11-16.25s0-10.83.11-16.25S190.3,107.42,190.51,102Z"/><polygon class="cls-1" points="198.63 53.25 198.87 73.56 199.01 93.88 199.13 134.5 199.01 175.13 198.88 195.44 198.63 215.75 198.39 195.44 198.25 175.13 198.13 134.5 198.25 93.88 198.39 73.56 198.63 53.25"/><path class="cls-1" d="M206.76,118.25c.2,2.71.3,5.42.38,8.13s.1,5.41.12,8.12,0,5.42-.12,8.12l-.14,4.07c-.08,1.35-.13,2.71-.24,4.06-.12-1.35-.17-2.71-.25-4.06l-.14-4.07c-.09-2.7-.1-5.41-.11-8.12s0-5.42.11-8.12S206.55,121,206.76,118.25Z"/><path class="cls-1" d="M214.88,85.75c.21,8.13.3,16.25.38,24.37l.12,24.38-.11,24.38-.14,12.18-.25,12.19-.24-12.19-.14-12.18-.12-24.38.12-24.38C214.58,102,214.67,93.88,214.88,85.75Z"/><path class="cls-1" d="M223,102c.2,5.42.3,10.83.38,16.25s.07,10.83.12,16.25,0,10.83-.12,16.25l-.14,8.13c-.08,2.7-.13,5.41-.24,8.12-.12-2.71-.17-5.42-.25-8.12l-.14-8.13c-.08-5.42-.07-10.83-.11-16.25s0-10.83.11-16.25S222.8,107.42,223,102Z"/><path class="cls-1" d="M231.13,69.5c.21,10.83.3,21.67.38,32.5l.12,32.5-.11,32.5-.14,16.25-.25,16.25-.24-16.25L230.75,167l-.12-32.5.12-32.5C230.83,91.17,230.92,80.33,231.13,69.5Z"/><path class="cls-1" d="M239.26,102c.2,5.42.3,10.83.38,16.25s.07,10.83.12,16.25,0,10.83-.12,16.25l-.14,8.13c-.08,2.7-.13,5.41-.24,8.12-.12-2.71-.17-5.42-.25-8.12l-.14-8.13c-.08-5.42-.07-10.83-.11-16.25s0-10.83.11-16.25S239.05,107.42,239.26,102Z"/><polygon class="cls-1" points="247.38 37 247.62 61.38 247.76 85.75 247.88 134.5 247.76 183.25 247.63 207.63 247.38 232 247.14 207.63 247 183.25 246.88 134.5 247 85.75 247.14 61.38 247.38 37"/><path class="cls-1" d="M255.51,102c.2,5.42.3,10.83.38,16.25s.07,10.83.12,16.25,0,10.83-.12,16.25l-.14,8.13c-.08,2.7-.13,5.41-.24,8.12-.12-2.71-.17-5.42-.25-8.12l-.14-8.13c-.08-5.42-.07-10.83-.11-16.25s0-10.83.11-16.25S255.3,107.42,255.51,102Z"/><path class="cls-1" d="M263.63,118.25c.21,2.71.3,5.42.38,8.13s.11,5.41.12,8.12,0,5.42-.11,8.12l-.14,4.07c-.09,1.35-.14,2.71-.25,4.06-.11-1.35-.16-2.71-.24-4.06l-.14-4.07c-.09-2.7-.11-5.41-.12-8.12s0-5.42.12-8.12S263.42,121,263.63,118.25Z"/><path class="cls-1" d="M271.76,85.75c.2,8.13.3,16.25.38,24.37l.12,24.38-.12,24.38L272,171.06l-.24,12.19-.25-12.19-.14-12.18-.11-24.38.11-24.38C271.45,102,271.55,93.88,271.76,85.75Z"/><path class="cls-1" d="M279.88,69.5c.21,10.83.3,21.67.38,32.5l.12,32.5-.11,32.5-.14,16.25-.25,16.25-.24-16.25L279.5,167l-.12-32.5.12-32.5C279.58,91.17,279.67,80.33,279.88,69.5Z"/><path class="cls-1" d="M288,102c.2,5.42.3,10.83.38,16.25s.07,10.83.12,16.25,0,10.83-.12,16.25l-.14,8.13c-.08,2.7-.13,5.41-.24,8.12-.12-2.71-.17-5.42-.25-8.12l-.14-8.13c-.08-5.42-.07-10.83-.11-16.25s0-10.83.11-16.25S287.8,107.42,288,102Z"/><path class="cls-1" d="M296.13,69.5c.21,10.83.3,21.67.38,32.5l.12,32.5-.11,32.5-.14,16.25-.25,16.25-.24-16.25L295.75,167l-.12-32.5.12-32.5C295.83,91.17,295.92,80.33,296.13,69.5Z"/><polygon class="cls-1" points="304.26 53.25 304.5 73.56 304.64 93.88 304.75 134.5 304.64 175.13 304.5 195.44 304.26 215.75 304.01 195.44 303.87 175.13 303.76 134.5 303.87 93.88 304.01 73.56 304.26 53.25"/><path class="cls-1" d="M312.38,85.75c.21,8.13.3,16.25.38,24.37l.12,24.38-.11,24.38-.14,12.18-.25,12.19-.24-12.19L312,158.88l-.12-24.38.12-24.38C312.08,102,312.17,93.88,312.38,85.75Z"/><path class="cls-1" d="M320.51,118.25c.2,2.71.3,5.42.38,8.13s.1,5.41.12,8.12,0,5.42-.12,8.12l-.14,4.07c-.08,1.35-.13,2.71-.24,4.06-.12-1.35-.17-2.71-.25-4.06l-.14-4.07c-.09-2.7-.1-5.41-.11-8.12s0-5.42.11-8.12S320.3,121,320.51,118.25Z"/><path class="cls-1" d="M328.63,85.75c.21,8.13.3,16.25.38,24.37l.12,24.38L329,158.88l-.14,12.18-.25,12.19-.24-12.19-.14-12.18-.12-24.38.12-24.38C328.33,102,328.42,93.88,328.63,85.75Z"/><path class="cls-1" d="M336.76,69.5c.2,10.83.3,21.67.38,32.5l.12,32.5-.12,32.5L337,183.25l-.24,16.25-.25-16.25L336.37,167l-.11-32.5.11-32.5C336.45,91.17,336.55,80.33,336.76,69.5Z"/><path class="cls-1" d="M344.88,102c.21,5.42.3,10.83.38,16.25s.08,10.83.12,16.25,0,10.83-.11,16.25l-.14,8.13c-.09,2.7-.14,5.41-.25,8.12-.11-2.71-.16-5.42-.24-8.12l-.14-8.13c-.08-5.42-.08-10.83-.12-16.25s0-10.83.12-16.25S344.67,107.42,344.88,102Z"/><path class="cls-1" d="M353,118.25c.2,2.71.3,5.42.38,8.13s.1,5.41.12,8.12,0,5.42-.12,8.12l-.14,4.07c-.08,1.35-.13,2.71-.24,4.06-.12-1.35-.17-2.71-.25-4.06l-.14-4.07c-.09-2.7-.1-5.41-.11-8.12s0-5.42.11-8.12S352.8,121,353,118.25Z"/><path class="cls-1" d="M81.42,0,61.48,33.76,41.4,67.44,21.32,101.12c-6.66,11.24-13.46,22.4-20.2,33.6l-.36-.65,50.5.13c8.41,0,16.83,0,25.25.11l25.25.19-25.25.19c-8.42.09-16.84.08-25.25.11l-50.5.13H0l.39-.65c6.7-11.22,13.35-22.47,20.13-33.65L40.77,67.06,61,33.49Z"/><path class="cls-1" d="M382.59,269l19.94-33.76,20.08-33.68,20.08-33.68c6.66-11.24,13.46-22.4,20.2-33.6l.37.65-50.5-.13c-8.42,0-16.84,0-25.25-.11l-25.25-.19,25.25-.19c8.41-.09,16.83-.08,25.25-.11l50.5-.13H464l-.39.65c-6.7,11.22-13.35,22.47-20.13,33.65l-20.25,33.57L403,235.51Z"/></g></g></svg>