<?xml version="1.0" encoding="utf-8"?>
<!-- Generator: Adobe Illustrator 23.0.2, SVG Export Plug-In . SVG Version: 6.00 Build 0)  -->
<svg version="1.1" id="Layer_1" xmlns="http://www.w3.org/2000/svg" xmlns:xlink="http://www.w3.org/1999/xlink" x="0px" y="0px"
	 viewBox="0 0 115 99.7" style="enable-background:new 0 0 115 99.7;" xml:space="preserve">
<g>
	<path d="M114.3,0c0.5,0.1,0.7,0.4,0.7,0.9s-0.2,0.7-0.7,0.7c-0.7-0.1-1.4-0.2-2-0.2c-0.5,0-0.9,0-1.3,0c-1,0-1.7,0.1-2.3,0.3
		c-0.6,0.2-1.2,0.6-1.8,1.3c-2.5,3.2-5.2,7.5-8.1,12.9c-2.9,5.3-5.7,10.6-8.5,15.8c-2.8,5-5.5,9.9-8.3,14.7c-2.8,4.7-5.6,9.4-8.5,14
		c-1.9,3.1-4.2,6.5-6.9,10c-2.7,3.5-5.3,6.5-7.6,8.7c-2.6,2.5-5.5,5-8.5,7.5s-6.3,4.6-9.8,6.6c-3.5,1.9-7.4,3.5-11.4,4.7
		c-4.1,1.2-8.6,1.8-13.7,1.8c-5.4,0-10-0.8-13.9-2.3c-0.6-0.2-1-0.5-1.4-0.8C0,96.3-0.1,95.7,0,94.9c0-0.8,0-2,0.1-3.5
		s0.2-3.1,0.3-4.8l1.3-0.4c0.5,3.1,2,5.8,4.6,8s6.8,3.3,12.5,3.3c5,0,9.7-0.9,14-2.6s8.7-5,13.4-9.6c4.2-4.2,8.4-9.4,12.7-15.6
		s8.7-13.1,13.2-20.8c2-3.5,4.2-7.2,6.5-11.2s4.5-8.1,6.7-12.1c2.2-4.1,4.2-8,6.1-11.8s3.5-7.1,4.9-10c0.1-0.2,0.2-0.6,0.2-1.1
		S96.1,2,95.4,2c-2.5,0-5.2,0.2-8.1,0.5s-5.8,0.8-8.6,1.3c-2.9,0.6-5.6,1.3-8.3,2.2c-2.6,0.8-5,1.8-7,2.9c-2,1.1-3.9,2.8-5.5,5
		c-1.6,2.3-2.4,4.8-2.4,7.6c0,1,0.1,1.8,0.4,2.5c0.2,0.4,0.1,0.5-0.4,0.5c-0.6-0.4-1.2-1.1-1.9-2.2c-0.7-1.1-1-2.8-1-5
		c0-1.9,1-4.1,2.9-6.6s5.4-4.5,10.4-6.2c1.8-0.6,3.9-1.1,6.3-1.6s5.5-0.9,9.2-1.3s8.2-0.7,13.6-1C100.2,0.1,106.7,0,114.3,0z"/>
</g>
</svg>
