<?xml version="1.0" encoding="utf-8"?>
<!-- Generator: Adobe Illustrator 23.0.2, SVG Export Plug-In . SVG Version: 6.00 Build 0)  -->
<svg version="1.1" id="Layer_1" xmlns="http://www.w3.org/2000/svg" xmlns:xlink="http://www.w3.org/1999/xlink" x="0px" y="0px"
	 viewBox="0 0 464 269" style="enable-background:new 0 0 464 269;" xml:space="preserve">
<title>Asset 1</title>
<g>
	<g id="Artwork">
		<path d="M109.3,118.2c0.2,2.7,0.3,5.4,0.4,8.1c0.1,2.7,0.1,5.4,0.1,8.1s0,5.4-0.1,8.1l-0.1,4.1c-0.1,1.4-0.1,2.7-0.2,4.1
			c-0.1-1.4-0.2-2.7-0.2-4.1l-0.1-4.1c-0.1-2.7-0.1-5.4-0.1-8.1s0-5.4,0.1-8.1S109.1,121,109.3,118.2z"/>
		<path d="M117.4,102c0.2,5.4,0.3,10.8,0.4,16.2s0.1,10.8,0.1,16.2s0,10.8-0.1,16.2l-0.1,8.1c-0.1,2.7-0.1,5.4-0.2,8.1
			c-0.1-2.7-0.2-5.4-0.2-8.1l-0.1-8.1c-0.1-5.4-0.1-10.8-0.1-16.2s0-10.8,0.1-16.2S117.2,107.4,117.4,102z"/>
		<polygon points="125.5,53.2 125.8,73.6 125.9,93.9 126,134.5 125.9,175.1 125.8,195.4 125.5,215.8 125.3,195.4 125.1,175.1 
			125,134.5 125.1,93.9 125.3,73.6 		"/>
		<path d="M133.6,69.5c0.2,10.8,0.3,21.7,0.4,32.5l0.1,32.5L134,167l-0.1,16.2l-0.2,16.2l-0.2-16.2l-0.1-16.2l-0.1-32.5l0.1-32.5
			C133.3,91.2,133.4,80.3,133.6,69.5z"/>
		<path d="M141.8,118.2c0.2,2.7,0.3,5.4,0.4,8.1c0.1,2.7,0.1,5.4,0.1,8.1s0,5.4-0.1,8.1l-0.1,4.1c-0.1,1.4-0.1,2.7-0.2,4.1
			c-0.1-1.4-0.2-2.7-0.2-4.1l-0.1-4.1c-0.1-2.7-0.1-5.4-0.1-8.1s0-5.4,0.1-8.1S141.6,121,141.8,118.2z"/>
		<path d="M149.9,85.8c0.2,8.1,0.3,16.2,0.4,24.4l0.1,24.4l-0.1,24.4l-0.1,12.2l-0.2,12.2l-0.2-12.2l-0.1-12.2l-0.1-24.4l0.1-24.4
			C149.6,102,149.7,93.9,149.9,85.8z"/>
		<polygon points="158,37 158.2,61.4 158.4,85.8 158.5,134.5 158.4,183.2 158.2,207.6 158,232 157.8,207.6 157.6,183.2 157.5,134.5 
			157.6,85.8 157.8,61.4 		"/>
		<path d="M166.1,118.2c0.2,2.7,0.3,5.4,0.4,8.1c0.1,2.7,0.1,5.4,0.1,8.1s0,5.4-0.1,8.1l-0.1,4.1c-0.1,1.4-0.1,2.7-0.2,4.1
			c-0.1-1.4-0.2-2.7-0.2-4.1l-0.1-4.1c-0.1-2.7-0.1-5.4-0.1-8.1s0-5.4,0.1-8.1S165.9,121,166.1,118.2z"/>
		<path d="M174.3,102c0.2,5.4,0.3,10.8,0.4,16.2s0.1,10.8,0.1,16.2s0,10.8-0.1,16.2l-0.1,8.1c-0.1,2.7-0.1,5.4-0.2,8.1
			c-0.1-2.7-0.2-5.4-0.2-8.1l-0.1-8.1c-0.1-5.4-0.1-10.8-0.1-16.2s0-10.8,0.1-16.2S174.1,107.4,174.3,102z"/>
		<path d="M182.4,69.5c0.2,10.8,0.3,21.7,0.4,32.5l0.1,32.5l-0.1,32.5l-0.1,16.2l-0.2,16.2l-0.2-16.2L182,167l-0.1-32.5L182,102
			C182.1,91.2,182.2,80.3,182.4,69.5z"/>
		<path d="M190.5,102c0.2,5.4,0.3,10.8,0.4,16.2s0.1,10.8,0.1,16.2s0,10.8-0.1,16.2l-0.1,8.1c-0.1,2.7-0.1,5.4-0.2,8.1
			c-0.1-2.7-0.2-5.4-0.2-8.1l-0.1-8.1c-0.1-5.4-0.1-10.8-0.1-16.2s0-10.8,0.1-16.2S190.3,107.4,190.5,102z"/>
		<polygon points="198.6,53.2 198.9,73.6 199,93.9 199.1,134.5 199,175.1 198.9,195.4 198.6,215.8 198.4,195.4 198.2,175.1 
			198.1,134.5 198.2,93.9 198.4,73.6 		"/>
		<path d="M206.8,118.2c0.2,2.7,0.3,5.4,0.4,8.1c0.1,2.7,0.1,5.4,0.1,8.1s0,5.4-0.1,8.1l-0.1,4.1c-0.1,1.4-0.1,2.7-0.2,4.1
			c-0.1-1.4-0.2-2.7-0.2-4.1l-0.1-4.1c-0.1-2.7-0.1-5.4-0.1-8.1s0-5.4,0.1-8.1S206.6,121,206.8,118.2z"/>
		<path d="M214.9,85.8c0.2,8.1,0.3,16.2,0.4,24.4l0.1,24.4l-0.1,24.4l-0.1,12.2l-0.2,12.2l-0.2-12.2l-0.1-12.2l-0.1-24.4l0.1-24.4
			C214.6,102,214.7,93.9,214.9,85.8z"/>
		<path d="M223,102c0.2,5.4,0.3,10.8,0.4,16.2s0.1,10.8,0.1,16.2s0,10.8-0.1,16.2l-0.1,8.1c-0.1,2.7-0.1,5.4-0.2,8.1
			c-0.1-2.7-0.2-5.4-0.2-8.1l-0.1-8.1c-0.1-5.4-0.1-10.8-0.1-16.2s0-10.8,0.1-16.2S222.8,107.4,223,102z"/>
		<path d="M231.1,69.5c0.2,10.8,0.3,21.7,0.4,32.5l0.1,32.5l-0.1,32.5l-0.1,16.2l-0.2,16.2l-0.2-16.2l-0.1-16.2l-0.1-32.5l0.1-32.5
			C230.8,91.2,230.9,80.3,231.1,69.5z"/>
		<path d="M239.3,102c0.2,5.4,0.3,10.8,0.4,16.2s0.1,10.8,0.1,16.2s0,10.8-0.1,16.2l-0.1,8.1c-0.1,2.7-0.1,5.4-0.2,8.1
			c-0.1-2.7-0.2-5.4-0.2-8.1l-0.1-8.1c-0.1-5.4-0.1-10.8-0.1-16.2s0-10.8,0.1-16.2S239.1,107.4,239.3,102z"/>
		<polygon points="247.4,37 247.6,61.4 247.8,85.8 247.9,134.5 247.8,183.2 247.6,207.6 247.4,232 247.1,207.6 247,183.2 
			246.9,134.5 247,85.8 247.1,61.4 		"/>
		<path d="M255.5,102c0.2,5.4,0.3,10.8,0.4,16.2s0.1,10.8,0.1,16.2s0,10.8-0.1,16.2l-0.1,8.1c-0.1,2.7-0.1,5.4-0.2,8.1
			c-0.1-2.7-0.2-5.4-0.2-8.1l-0.1-8.1c-0.1-5.4-0.1-10.8-0.1-16.2s0-10.8,0.1-16.2S255.3,107.4,255.5,102z"/>
		<path d="M263.6,118.2c0.2,2.7,0.3,5.4,0.4,8.1c0.1,2.7,0.1,5.4,0.1,8.1s0,5.4-0.1,8.1l-0.1,4.1c-0.1,1.4-0.1,2.7-0.2,4.1
			c-0.1-1.4-0.2-2.7-0.2-4.1l-0.1-4.1c-0.1-2.7-0.1-5.4-0.1-8.1s0-5.4,0.1-8.1S263.4,121,263.6,118.2z"/>
		<path d="M271.8,85.8c0.2,8.1,0.3,16.2,0.4,24.4l0.1,24.4l-0.1,24.4l-0.1,12.2l-0.2,12.2l-0.2-12.2l-0.1-12.2l-0.1-24.4l0.1-24.4
			C271.5,102,271.5,93.9,271.8,85.8z"/>
		<path d="M279.9,69.5c0.2,10.8,0.3,21.7,0.4,32.5l0.1,32.5l-0.1,32.5l-0.1,16.2l-0.2,16.2l-0.2-16.2l-0.1-16.2l-0.1-32.5l0.1-32.5
			C279.6,91.2,279.7,80.3,279.9,69.5z"/>
		<path d="M288,102c0.2,5.4,0.3,10.8,0.4,16.2s0.1,10.8,0.1,16.2s0,10.8-0.1,16.2l-0.1,8.1c-0.1,2.7-0.1,5.4-0.2,8.1
			c-0.1-2.7-0.2-5.4-0.2-8.1l-0.1-8.1c-0.1-5.4-0.1-10.8-0.1-16.2s0-10.8,0.1-16.2S287.8,107.4,288,102z"/>
		<path d="M296.1,69.5c0.2,10.8,0.3,21.7,0.4,32.5l0.1,32.5l-0.1,32.5l-0.1,16.2l-0.2,16.2l-0.2-16.2l-0.1-16.2l-0.1-32.5l0.1-32.5
			C295.8,91.2,295.9,80.3,296.1,69.5z"/>
		<polygon points="304.3,53.2 304.5,73.6 304.6,93.9 304.8,134.5 304.6,175.1 304.5,195.4 304.3,215.8 304,195.4 303.9,175.1 
			303.8,134.5 303.9,93.9 304,73.6 		"/>
		<path d="M312.4,85.8c0.2,8.1,0.3,16.2,0.4,24.4l0.1,24.4l-0.1,24.4l-0.1,12.2l-0.2,12.2l-0.2-12.2l-0.1-12.2l-0.1-24.4l0.1-24.4
			C312.1,102,312.2,93.9,312.4,85.8z"/>
		<path d="M320.5,118.2c0.2,2.7,0.3,5.4,0.4,8.1c0.1,2.7,0.1,5.4,0.1,8.1s0,5.4-0.1,8.1l-0.1,4.1c-0.1,1.4-0.1,2.7-0.2,4.1
			c-0.1-1.4-0.2-2.7-0.2-4.1l-0.1-4.1c-0.1-2.7-0.1-5.4-0.1-8.1s0-5.4,0.1-8.1S320.3,121,320.5,118.2z"/>
		<path d="M328.6,85.8c0.2,8.1,0.3,16.2,0.4,24.4l0.1,24.4L329,159l-0.1,12.2l-0.2,12.2l-0.2-12.2l-0.1-12.2l-0.1-24.4l0.1-24.4
			C328.3,102,328.4,93.9,328.6,85.8z"/>
		<path d="M336.8,69.5c0.2,10.8,0.3,21.7,0.4,32.5l0.1,32.5l-0.1,32.5l-0.1,16.2l-0.2,16.2l-0.2-16.2l-0.1-16.2l-0.1-32.5l0.1-32.5
			C336.5,91.2,336.5,80.3,336.8,69.5z"/>
		<path d="M344.9,102c0.2,5.4,0.3,10.8,0.4,16.2s0.1,10.8,0.1,16.2s0,10.8-0.1,16.2l-0.1,8.1c-0.1,2.7-0.1,5.4-0.2,8.1
			c-0.1-2.7-0.2-5.4-0.2-8.1l-0.1-8.1c-0.1-5.4-0.1-10.8-0.1-16.2s0-10.8,0.1-16.2S344.7,107.4,344.9,102z"/>
		<path d="M353,118.2c0.2,2.7,0.3,5.4,0.4,8.1c0.1,2.7,0.1,5.4,0.1,8.1s0,5.4-0.1,8.1l-0.1,4.1c-0.1,1.4-0.1,2.7-0.2,4.1
			c-0.1-1.4-0.2-2.7-0.2-4.1l-0.1-4.1c-0.1-2.7-0.1-5.4-0.1-8.1s0-5.4,0.1-8.1S352.8,121,353,118.2z"/>
		<path d="M81.4,0L61.5,33.8L41.4,67.4l-20.1,33.7c-6.7,11.2-13.5,22.4-20.2,33.6l-0.4-0.6l50.5,0.1c8.4,0,16.8,0,25.2,0.1l25.2,0.2
			l-25.2,0.2c-8.4,0.1-16.8,0.1-25.2,0.1l-50.5,0.1H0l0.4-0.6c6.7-11.2,13.4-22.5,20.1-33.7L40.8,67L61,33.5L81.4,0z"/>
		<path d="M382.6,269l19.9-33.8l20.1-33.7l20.1-33.7c6.7-11.2,13.5-22.4,20.2-33.6l0.4,0.6l-50.5-0.1c-8.4,0-16.8,0-25.2-0.1
			l-25.2-0.2l25.2-0.2c8.4-0.1,16.8-0.1,25.2-0.1l50.5-0.1h0.7l-0.4,0.6c-6.7,11.2-13.4,22.5-20.1,33.6l-20.2,33.6L403,235.5
			L382.6,269z"/>
	</g>
</g>
</svg>
